<svg width="21" height="20" viewBox="0 0 21 20" fill="none" xmlns="http://www.w3.org/2000/svg">
<path d="M10.0557 7.22C10.5861 7.22 11.0948 7.43071 11.4699 7.80579C11.8449 8.18086 12.0557 8.68957 12.0557 9.22C12.0557 9.75043 11.8449 10.2591 11.4699 10.6342C11.0948 11.0093 10.5861 11.22 10.0557 11.22C9.52523 11.22 9.01652 11.0093 8.64145 10.6342C8.26638 10.2591 8.05566 9.75043 8.05566 9.22C8.05566 8.68957 8.26638 8.18086 8.64145 7.80579C9.01652 7.43071 9.52523 7.22 10.0557 7.22V7.22ZM10.0557 19.22C8.10566 19.22 6.27566 18.66 4.74566 17.69L8.05566 12.69C8.65566 13.03 9.33566 13.22 10.0557 13.22C10.7757 13.22 11.4557 13.03 12.0557 12.69L15.3657 17.69C13.8357 18.66 12.0057 19.22 10.0557 19.22ZM0.0556641 9.22C0.0556641 5.08 2.55566 1.52 6.16566 -2.86102e-08L8.39566 5.58C7.01566 6.22 6.05566 7.6 6.05566 9.22H0.0556641ZM14.0557 9.22C14.0557 7.6 13.0957 6.22 11.7157 5.58L13.9457 -2.86102e-08C17.5557 1.52 20.0557 5.08 20.0557 9.22H14.0557Z" fill="#00579F"/>
</svg>
